<?xml version="1.0" encoding="UTF-8" standalone="no"?>
<svg
   xmlns:dc="http://purl.org/dc/elements/1.1/"
   xmlns:cc="http://creativecommons.org/ns#"
   xmlns:rdf="http://www.w3.org/1999/02/22-rdf-syntax-ns#"
   xmlns:svg="http://www.w3.org/2000/svg"
   xmlns="http://www.w3.org/2000/svg"
   xmlns:sodipodi="http://sodipodi.sourceforge.net/DTD/sodipodi-0.dtd"
   xmlns:inkscape="http://www.inkscape.org/namespaces/inkscape"
   width="1200"
   height="630"
   viewBox="0 0 317.5 166.6875"
   version="1.1"
   id="svg8"
   inkscape:version="1.0.2-2 (e86c870879, 2021-01-15)"
   sodipodi:docname="news.svg"
   inkscape:export-filename="C:\git\SA\img\p\news\0003.png"
   inkscape:export-xdpi="96"
   inkscape:export-ydpi="96">
  <defs
     id="defs2">
    <rect
       x="-237.17205"
       y="-991.78317"
       width="3852.9108"
       height="2292.7913"
       id="rect864" />
    <rect
       x="1162.5678"
       y="-1043.8982"
       width="1743.9498"
       height="1778.5734"
       id="rect1023" />
    <rect
       x="267.82243"
       y="-705.24928"
       width="1810.9218"
       height="442.64345"
       id="rect1009" />
    <rect
       x="52.538691"
       y="40.443452"
       width="1.1339286"
       height="3.7797619"
       id="rect868" />
  </defs>
  <sodipodi:namedview
     id="base"
     pagecolor="#ffffff"
     bordercolor="#666666"
     borderopacity="1.0"
     inkscape:pageopacity="1"
     inkscape:pageshadow="2"
     inkscape:zoom="0.7"
     inkscape:cx="542.27681"
     inkscape:cy="398.41666"
     inkscape:document-units="mm"
     inkscape:current-layer="text837"
     inkscape:document-rotation="0"
     showgrid="false"
     units="px"
     width="1200px"
     inkscape:window-width="1920"
     inkscape:window-height="1027"
     inkscape:window-x="-8"
     inkscape:window-y="-8"
     inkscape:window-maximized="1"
     inkscape:pagecheckerboard="false" />
  <metadata
     id="metadata5">
    <rdf:RDF>
      <cc:Work
         rdf:about="">
        <dc:format>image/svg+xml</dc:format>
        <dc:type
           rdf:resource="http://purl.org/dc/dcmitype/StillImage" />
        <dc:title></dc:title>
      </cc:Work>
    </rdf:RDF>
  </metadata>
  <g
     inkscape:label="レイヤー 1"
     inkscape:groupmode="layer"
     id="layer1">
    <g
       aria-label="suisei"
       transform="matrix(0.09976919,0,0,0.10023133,-0.52801276,92.604175)"
       id="text837"
       style="font-style:normal;font-variant:normal;font-weight:500;font-stretch:normal;font-size:311.541px;line-height:1.25;font-family:'Yu Gothic';-inkscape-font-specification:'Yu Gothic, Medium';font-variant-ligatures:normal;font-variant-caps:normal;font-variant-numeric:normal;font-variant-east-asian:normal;letter-spacing:-15.5771px;word-spacing:0px;fill:#333333;fill-opacity:1;stroke:none;stroke-width:0.311541;stroke-opacity:0.498039">
      <g
         id="g945"
         transform="matrix(0.08235294,0,0,0.08235294,270.05193,208.07251)">
        <g
           id="g933"
           transform="translate(4640.9159,1157.709)">
          <path
             style="fill:#88ffff;fill-opacity:1;stroke-width:2.57687"
             id="path839"
             sodipodi:type="arc"
             sodipodi:cx="3508.543"
             sodipodi:cy="-162.15433"
             sodipodi:rx="1127.0806"
             sodipodi:ry="1121.8839"
             sodipodi:start="0"
             sodipodi:end="3.1415927"
             sodipodi:open="true"
             sodipodi:arc-type="arc"
             transform="scale(-1)"
             d="m 4635.6235,-162.15433 a 1127.0806,1121.8839 0 0 1 -563.5403,971.57998 1127.0806,1121.8839 0 0 1 -1127.0805,-3e-5 1127.0806,1121.8839 0 0 1 -563.5403,-971.57995" />
          <path
             style="fill:#55ccff;fill-opacity:1;stroke-width:2.57687"
             id="path841"
             sodipodi:type="arc"
             sodipodi:cx="-959.72955"
             sodipodi:cy="2381.4624"
             sodipodi:rx="1121.8839"
             sodipodi:ry="1127.0806"
             sodipodi:start="0"
             sodipodi:end="3.1415927"
             sodipodi:open="true"
             sodipodi:arc-type="arc"
             transform="rotate(90)"
             d="m 162.15436,2381.4624 a 1121.8839,1127.0806 0 0 1 -560.94197,976.0804 1121.8839,1127.0806 0 0 1 -1121.88389,0 1121.8839,1127.0806 0 0 1 -560.942,-976.0804" />
        </g>
        <g
           aria-label="suisei"
           transform="matrix(10.000015,0,0,10.000015,-4237.8442,-2243.7728)"
           id="text837-9"
           style="font-style:normal;font-variant:normal;font-weight:500;font-stretch:normal;font-size:311.541px;line-height:1.25;font-family:'Yu Gothic';-inkscape-font-specification:'Yu Gothic, Medium';font-variant-ligatures:normal;font-variant-caps:normal;font-variant-numeric:normal;font-variant-east-asian:normal;letter-spacing:-15.5771px;word-spacing:0px;fill:#333333;fill-opacity:1;stroke:none;stroke-width:0.311541;stroke-opacity:0.498039">
          <path
             d="m 809.38121,227.97411 -24.33914,7.7581 q -8.06234,-27.38153 -34.53115,-27.38153 -16.2768,0 -24.94762,7.14962 -7.45386,6.08479 -7.45386,15.66832 0,12.16957 7.60598,17.95012 6.9975,5.32419 25.09974,9.73565 l 12.77805,3.0424 q 29.05484,6.9975 40.00746,18.55859 9.73565,10.19202 9.73565,28.59849 0,22.5137 -17.18951,35.29175 -16.2768,12.01745 -44.11469,12.01745 -48.98252,0 -63.28177,-38.63838 l 24.64338,-8.82294 q 9.2793,28.75061 39.24686,28.75061 19.62343,0 28.90273,-8.82294 7.14962,-6.69326 7.14962,-17.34164 0,-13.38652 -7.60598,-19.16707 -6.84538,-5.17207 -27.22941,-10.49625 L 741.0795,279.0863 q -27.99001,-7.14962 -38.18202,-18.71071 -8.5187,-9.88778 -8.5187,-27.38153 0,-20.53615 15.97256,-32.40148 15.05984,-10.95261 40.46382,-10.95261 44.57105,0 58.56605,38.33414 z"
             style="font-style:normal;font-variant:normal;font-weight:500;font-stretch:normal;font-size:311.541px;font-family:'Yu Gothic';-inkscape-font-specification:'Yu Gothic, Medium';font-variant-ligatures:normal;font-variant-caps:normal;font-variant-numeric:normal;font-variant-east-asian:normal;fill:#333333;fill-opacity:1;stroke:none;stroke-width:0.311541;stroke-opacity:0.498039"
             id="path837" />
          <path
             d="m 967.52471,193.44296 v 159.11712 h -24.33914 v -29.20697 q -10.34413,16.2768 -26.16457,25.25186 -14.14713,7.7581 -29.20697,7.7581 -20.99251,0 -33.16208,-12.93017 -11.40897,-12.01745 -11.40897,-32.24936 V 193.44296 h 25.86034 v 109.98248 q 0,30.88029 27.38153,30.88029 13.08229,0 26.46881,-10.0399 11.71321,-8.82294 19.31919,-22.20946 V 193.44296 Z"
             style="font-style:normal;font-variant:normal;font-weight:500;font-stretch:normal;font-size:311.541px;font-family:'Yu Gothic';-inkscape-font-specification:'Yu Gothic, Medium';font-variant-ligatures:normal;font-variant-caps:normal;font-variant-numeric:normal;font-variant-east-asian:normal;fill:#333333;fill-opacity:1;stroke:none;stroke-width:0.311541;stroke-opacity:0.498039"
             id="path840" />
          <path
             d="m 1034.853,193.44296 v 159.11712 h -25.5562 V 193.44296 Z m 2.8903,-61.45633 v 30.88028 h -31.1847 v -30.88028 z"
             style="font-style:normal;font-variant:normal;font-weight:500;font-stretch:normal;font-size:311.541px;font-family:'Yu Gothic';-inkscape-font-specification:'Yu Gothic, Medium';font-variant-ligatures:normal;font-variant-caps:normal;font-variant-numeric:normal;font-variant-east-asian:normal;fill:#333333;fill-opacity:1;stroke:none;stroke-width:0.311541;stroke-opacity:0.498039"
             id="path842" />
          <path
             d="m 1184.1736,227.97411 -24.3392,7.7581 q -8.0623,-27.38153 -34.5311,-27.38153 -16.2768,0 -24.9476,7.14962 -7.4539,6.08479 -7.4539,15.66832 0,12.16957 7.606,17.95012 6.9975,5.32419 25.0997,9.73565 l 12.7781,3.0424 q 29.0548,6.9975 40.0074,18.55859 9.7357,10.19202 9.7357,28.59849 0,22.5137 -17.1895,35.29175 -16.2768,12.01745 -44.1147,12.01745 -48.9825,0 -63.2818,-38.63838 l 24.6434,-8.82294 q 9.2793,28.75061 39.2469,28.75061 19.6234,0 28.9027,-8.82294 7.1496,-6.69326 7.1496,-17.34164 0,-13.38652 -7.606,-19.16707 -6.8453,-5.17207 -27.2294,-10.49625 l -12.778,-2.73816 q -27.99,-7.14962 -38.182,-18.71071 -8.5187,-9.88778 -8.5187,-27.38153 0,-20.53615 15.9725,-32.40148 15.0599,-10.95261 40.4638,-10.95261 44.5711,0 58.5661,38.33414 z"
             style="font-style:normal;font-variant:normal;font-weight:500;font-stretch:normal;font-size:311.541px;font-family:'Yu Gothic';-inkscape-font-specification:'Yu Gothic, Medium';font-variant-ligatures:normal;font-variant-caps:normal;font-variant-numeric:normal;font-variant-east-asian:normal;fill:#333333;fill-opacity:1;stroke:none;stroke-width:0.311541;stroke-opacity:0.498039"
             id="path844" />
          <path
             d="m 1345.2074,276.65239 h -111.5037 q 0,30.72816 14.4513,47.00496 12.1696,13.69077 32.2494,13.69077 31.4888,0 40.4638,-32.40148 l 23.4264,7.7581 q -15.6683,43.65833 -64.1944,43.65833 -34.8354,0 -54.0025,-24.94762 -17.0374,-22.05734 -17.0374,-57.95757 0,-40.15958 22.0573,-63.73812 18.8629,-20.07979 46.8529,-20.07979 31.9451,0 50.5037,24.33914 16.7332,21.90522 16.7332,57.04485 z m -24.6434,-18.10224 q -1.9776,-25.55609 -14.4514,-38.48626 -10.8005,-11.10473 -27.8379,-11.10473 -19.7755,0 -31.9451,15.21196 -10.4962,13.23441 -12.0174,34.37903 z"
             style="font-style:normal;font-variant:normal;font-weight:500;font-stretch:normal;font-size:311.541px;font-family:'Yu Gothic';-inkscape-font-specification:'Yu Gothic, Medium';font-variant-ligatures:normal;font-variant-caps:normal;font-variant-numeric:normal;font-variant-east-asian:normal;fill:#333333;fill-opacity:1;stroke:none;stroke-width:0.311541;stroke-opacity:0.498039"
             id="path846" />
          <path
             d="m 1401.887,193.44296 v 159.11712 h -25.5561 V 193.44296 Z m 2.8903,-61.45633 v 30.88028 h -31.1845 v -30.88028 z"
             style="font-style:normal;font-variant:normal;font-weight:500;font-stretch:normal;font-size:311.541px;font-family:'Yu Gothic';-inkscape-font-specification:'Yu Gothic, Medium';font-variant-ligatures:normal;font-variant-caps:normal;font-variant-numeric:normal;font-variant-east-asian:normal;fill:#333333;fill-opacity:1;stroke:none;stroke-width:0.311541;stroke-opacity:0.498039"
             id="path848" />
        </g>
      </g>
      <text
         xml:space="preserve"
         id="text1007"
         style="line-height:1.25;font-family:'BIZ UDPMincho';font-size:23.81250166px;-inkscape-font-specification:'BIZ UDPMincho';letter-spacing:0px;word-spacing:0px;white-space:pre;shape-inside:url(#rect1009);" />
      <text
         xml:space="preserve"
         style="font-style:normal;font-variant:normal;font-weight:normal;font-stretch:normal;font-size:286.134px;line-height:1.25;font-family:Arial;-inkscape-font-specification:'Arial, Normal';font-variant-ligatures:normal;font-variant-caps:normal;font-variant-numeric:normal;font-variant-east-asian:normal;text-align:start;letter-spacing:0px;word-spacing:0px;baseline-shift:baseline;text-anchor:start;stroke-width:0.797405"
         x="261.06149"
         y="-329.98489"
         id="text1015"
         transform="scale(1.0023134,0.99769194)"><tspan
           sodipodi:role="line"
           x="261.06149"
           y="-329.98489"
           style="font-style:normal;font-variant:normal;font-weight:normal;font-stretch:normal;font-family:Arial;-inkscape-font-specification:'Arial, Normal';font-variant-ligatures:normal;font-variant-caps:normal;font-variant-numeric:normal;font-variant-east-asian:normal;text-align:start;baseline-shift:baseline;text-anchor:start;stroke-width:0.797405"
           id="tspan858"><tspan
   style="font-size:148.167px"
   id="tspan856">2022/05/15の更新</tspan> </tspan></text>
      <text
         xml:space="preserve"
         id="text1021"
         style="line-height:1.25;font-family:'BIZ UDPMincho';font-size:23.81250166px;-inkscape-font-specification:'BIZ UDPMincho';letter-spacing:0px;word-spacing:0px;white-space:pre;shape-inside:url(#rect1023);text-align:center;" />
      <text
         xml:space="preserve"
         id="text862"
         style="line-height:1.25;font-family:'BIZ UDPMincho';font-size:23.81250166px;-inkscape-font-specification:'BIZ UDPMincho';letter-spacing:0px;word-spacing:0px;white-space:pre;shape-inside:url(#rect864);" />
    </g>
    <text
       xml:space="preserve"
       id="text866"
       style="font-size:2.38125px;line-height:1.25;font-family:'BIZ UDPMincho';-inkscape-font-specification:'BIZ UDPMincho';letter-spacing:0px;word-spacing:0px;white-space:pre;shape-inside:url(#rect868);stroke:none;stroke-opacity:1;"><tspan
         style="visibility:hidden"
         x="52.539062"
         y="46.615533"><tspan
           dx="0 2.2859068 2.2859068 2.2859068 2.2859068 2.2859068"
           style="stroke:none;stroke-opacity:1">ああああああ</tspan></tspan></text>
  </g>
</svg>
