<?xml version="1.0" encoding="UTF-8"?>
<svg width="2e3" height="2e3" version="1.1" viewBox="0 0 529.17 529.17" xmlns="http://www.w3.org/2000/svg">
 <g transform="translate(-23.041)" fill="#111111" shape-rendering="auto" stroke="#111">
  <path d="m332.29 44.358c0 24.498-19.86 44.358-44.358 44.358s-44.358-19.86-44.358-44.358 19.86-44.358 44.358-44.358 44.358 19.86 44.358 44.358z" color="#111" color-rendering="auto" dominant-baseline="auto" image-rendering="auto" solid-color="#111" stop-color="#111" stroke-linecap="round" stroke-width="1.0001" style="font-feature-settings:normal;font-variant-alternates:normal;font-variant-caps:normal;font-variant-east-asian:normal;font-variant-ligatures:normal;font-variant-numeric:normal;font-variant-position:normal;font-variation-settings:normal;inline-size:0;isolation:auto;mix-blend-mode:normal;shape-margin:0;shape-padding:0;text-decoration-color:#111;text-decoration-line:none;text-decoration-style:solid;text-indent:0;text-orientation:mixed;text-transform:none;white-space:normal"/>
  <g transform="matrix(1.1177 0 0 1.1177 -7.7821 -29.572)" stroke-width=".89482">
   <path d="m264.05 325.43s1.8226-0.18851 1.9123 2.022l6.4808 159.8s0.77766 12.529 17.059 12.529c16.281 0 16.588-13.444 16.588-13.712 0-0.26728 15.047-325.24 15.047-325.24l127.61-14.879s13.555 0.0311 13.591-12.862c0.0372-13.295-10.9-13.33-10.9-13.33l-187.39-0.55174" color="#111" color-rendering="auto" dominant-baseline="auto" image-rendering="auto" solid-color="#111" stop-color="#111" style="font-feature-settings:normal;font-variant-alternates:normal;font-variant-caps:normal;font-variant-east-asian:normal;font-variant-ligatures:normal;font-variant-numeric:normal;font-variant-position:normal;font-variation-settings:normal;inline-size:0;isolation:auto;mix-blend-mode:normal;shape-margin:0;shape-padding:0;text-decoration-color:#111;text-decoration-line:none;text-decoration-style:solid;text-indent:0;text-orientation:mixed;text-transform:none;white-space:normal"/>
   <path d="m264.05 119.06v0.26953l187.39 0.55078s2.6968 0.0103 5.3926 1.6602c2.6958 1.6498 5.3915 4.9245 5.373 11.535-0.0179 6.3996-3.3706 9.5555-6.7324 11.145-3.3618 1.589-6.7246 1.584-6.7246 1.584h-8e-3l-127.73 14.893-4e-3 0.11523s-15.047 324.98-15.047 325.25c0 0.0411-0.0201 0.93984-0.30078 2.2266-0.28068 1.2867-0.82357 2.9776-1.8691 4.6582-2.0912 3.3613-6.1814 6.6914-14.285 6.6914-8.1062 0-12.318-3.1062-14.525-6.207-2.205-3.0978-2.3981-6.1854-2.3984-6.1914v-4e-3l-6.4805-159.79c-0.0463-1.1423-0.55998-1.7074-1.0644-1.9551s-0.99609-0.19531-0.99609-0.19531l0.0273 0.26758s0.42035-0.0428 0.84961 0.16797c0.42926 0.21073 0.87074 0.65635 0.91406 1.7246l6.4805 159.8v2e-3s0.19721 3.1702 2.4492 6.334c2.252 3.1638 6.5689 6.3203 14.744 6.3203 8.1777 0 12.381-3.3906 14.514-6.8184 1.0662-1.7139 1.6187-3.4349 1.9043-4.7441 0.2856-1.3093 0.30469-2.1907 0.30469-2.2832 0-0.26718 15.031-324.9 15.041-325.12l127.48-14.863 0.0156-2e-3c0.0249 5e-5 3.4122 5e-3 6.8242-1.6074 3.4246-1.6187 6.8666-4.8949 6.8848-11.389 0.0187-6.6844-2.7364-10.074-5.5-11.766s-5.5332-1.6992-5.5332-1.6992z" color="#111" color-rendering="auto" dominant-baseline="auto" image-rendering="auto" solid-color="#111" stop-color="#111" style="font-feature-settings:normal;font-variant-alternates:normal;font-variant-caps:normal;font-variant-east-asian:normal;font-variant-ligatures:normal;font-variant-numeric:normal;font-variant-position:normal;font-variation-settings:normal;inline-size:0;isolation:auto;mix-blend-mode:normal;shape-margin:0;shape-padding:0;text-decoration-color:#111;text-decoration-line:none;text-decoration-style:solid;text-indent:0;text-orientation:mixed;text-transform:none;white-space:normal"/>
   <path d="m264.55 325.43s-1.8226-0.18851-1.9123 2.022l-6.4808 159.8s-0.77766 12.529-17.059 12.529-16.588-13.444-16.588-13.712c0-0.26728-15.047-325.24-15.047-325.24l-127.61-14.879s-13.555 0.0311-13.591-12.862c-0.03717-13.295 10.9-13.33 10.9-13.33l187.39-0.55174" color="#111" color-rendering="auto" dominant-baseline="auto" image-rendering="auto" solid-color="#111" stop-color="#111" style="font-feature-settings:normal;font-variant-alternates:normal;font-variant-caps:normal;font-variant-east-asian:normal;font-variant-ligatures:normal;font-variant-numeric:normal;font-variant-position:normal;font-variation-settings:normal;inline-size:0;isolation:auto;mix-blend-mode:normal;shape-margin:0;shape-padding:0;text-decoration-color:#111;text-decoration-line:none;text-decoration-style:solid;text-indent:0;text-orientation:mixed;text-transform:none;white-space:normal"/>
   <path d="m264.55 119.06-187.39 0.55078h-2e-3s-2.7696 8e-3 -5.5332 1.6992c-2.7636 1.6914-5.5187 5.0812-5.5 11.766 0.01814 6.4938 3.4621 9.7699 6.8867 11.389 3.4246 1.6187 6.8379 1.6094 6.8379 1.6094l127.48 14.863c0.0105 0.22628 15.041 324.86 15.041 325.12 0 0.0925 0.021 0.97394 0.30664 2.2832 0.28559 1.3093 0.83609 3.0303 1.9023 4.7441 2.1325 3.4277 6.336 6.8184 14.514 6.8184 8.1752 0 12.492-3.1566 14.744-6.3203 2.252-3.1638 2.4492-6.334 2.4492-6.334v-2e-3l6.4805-159.8c0.0433-1.0683 0.48675-1.5139 0.91602-1.7246 0.42926-0.21073 0.84961-0.16797 0.84961-0.16797l0.0273-0.26758s-0.49163-0.0523-0.99609 0.19531c-0.50447 0.24765-1.0181 0.8128-1.0645 1.9551l-6.4805 159.8c-3.7e-4 6e-3 -0.19535 3.0936-2.4004 6.1914-2.2072 3.1008-6.4191 6.207-14.525 6.207-8.1037 0-12.194-3.3301-14.285-6.6914-1.0456-1.6806-1.5885-3.3715-1.8691-4.6582-0.28068-1.2867-0.29883-2.1854-0.29883-2.2266 0-0.26728-15.047-325.25-15.047-325.25l-6e-3 -0.11523-127.73-14.893h-0.0078s-3.3628 5e-3 -6.7246-1.584c-3.3618-1.589-6.7126-4.745-6.7305-11.145-0.01848-6.6107 2.6753-9.8853 5.3711-11.535 2.6958-1.6498 5.3945-1.6602 5.3945-1.6602l187.39-0.55078z" color="#111" color-rendering="auto" dominant-baseline="auto" image-rendering="auto" solid-color="#111" stop-color="#111" style="font-feature-settings:normal;font-variant-alternates:normal;font-variant-caps:normal;font-variant-east-asian:normal;font-variant-ligatures:normal;font-variant-numeric:normal;font-variant-position:normal;font-variation-settings:normal;inline-size:0;isolation:auto;mix-blend-mode:normal;shape-margin:0;shape-padding:0;text-decoration-color:#111;text-decoration-line:none;text-decoration-style:solid;text-indent:0;text-orientation:mixed;text-transform:none;white-space:normal"/>
  </g>
 </g>
</svg>
