<?xml version="1.0" encoding="UTF-8"?>
<svg width="1e3" height="1e3" version="1.1" viewBox="0 0 264.58 264.58" xmlns="http://www.w3.org/2000/svg">
 <g fill="none" stroke-linecap="round">
  <g stroke="#111111">
   <g transform="matrix(1.1552 -.22007 .22455 1.1322 -72.363 1.9059)">
    <circle transform="rotate(24)" d="M 236.47101,-54.865982 A 132.29825,130.97571 0 0 1 284.89553,124.05016 132.29825,130.97571 0 0 1 104.17276,171.9906" stroke-width="2.6458"/>
    <circle transform="matrix(.62797 .77824 -.72756 .68604 0 0)" d="M 197.61118,-157.03145 A 168.3127,167.09837 0 0 1 245.41463,-17.079095 168.3127,167.09837 0 0 1 162.7028,105.78705" stroke-width="2.6498"/>
   </g>
   <path d="m132.29 6.4206a125.87 125.87 0 0 1 122.81 98.269 125.87 125.87 0 0 1-68.949 141.37 125.87 125.87 0 0 1-153.04-36.272" stroke-width="12.841"/>
   <path d="m130.06 6.5017a112.72 112.72 0 0 1 48.82 148.05 112.72 112.72 0 0 1-145.78 55.231" stroke-width="12.686"/>
  </g>
  <g stroke="#ff1111" stroke-width="12.841"></g>
 </g>
</svg>
